<mxfile host="Electron" modified="2023-02-01T19:25:25.744Z" agent="5.0 (Windows NT 10.0; Win64; x64) AppleWebKit/537.36 (KHTML, like Gecko) draw.io/15.7.3 Chrome/91.0.4472.164 Electron/13.6.1 Safari/537.36" etag="7kJiwqNsS4e67QWwGMFw" compressed="false" version="15.7.3" type="device">
  <diagram id="nHi-_M6qC4rsmJ_72PdH" name="Page-1">
    <mxGraphModel dx="1102" dy="1025" grid="1" gridSize="10" guides="1" tooltips="1" connect="1" arrows="1" fold="1" page="1" pageScale="1" pageWidth="850" pageHeight="1100" math="0" shadow="0">
      <root>
        <mxCell id="0" />
        <mxCell id="1" parent="0" />
        <UserObject label="%Name%" placeholders="1" Name="Teacup Temperature" Doc="The temperature of the teacup" Units="C" _initial="100" _equation="-  Heat Loss to Room " _pysd_type="IntegStructure" id="4TX2-69w3CT22Hbb08V7-1">
          <mxCell style="rounded=0;whiteSpace=wrap;html=1;fillColor=#f8cecc;strokeColor=#b85450;" parent="1" vertex="1">
            <mxGeometry x="110" y="300" width="100" height="50" as="geometry" />
          </mxCell>
        </UserObject>
        <mxCell id="4TX2-69w3CT22Hbb08V7-4" style="edgeStyle=orthogonalEdgeStyle;rounded=0;orthogonalLoop=1;jettySize=auto;html=1;exitX=0.5;exitY=0.5;exitDx=0;exitDy=0;exitPerimeter=0;" parent="1" source="4TX2-69w3CT22Hbb08V7-2" target="4TX2-69w3CT22Hbb08V7-1" edge="1">
          <mxGeometry relative="1" as="geometry" />
        </mxCell>
        <UserObject label="%Name%" placeholders="1" Name="Heat Loss to Room" Doc="The loss of heat to room" Units="J/s" _equation="   ( Teacup Temperature -  Room Temperature ) /  Characteristic Time  " _pysd_type="AbstractElement" _initial="" id="4TX2-69w3CT22Hbb08V7-2">
          <mxCell style="shape=collate;whiteSpace=wrap;html=1;points=[[0,0,0,0,0],[0,0.5,0,0,0],[0,1,0,0,0],[0.5,0,0,0,0],[0.5,0.5,0,0,0],[0.5,1,0,0,0],[1,0,0,0,0],[1,0.5,0,0,0],[1,1,0,0,0]];labelPosition=center;verticalLabelPosition=bottom;align=center;verticalAlign=top;fillColor=#fff2cc;strokeColor=#d6b656;" parent="1" vertex="1">
            <mxGeometry x="300" y="300" width="30" height="50" as="geometry" />
          </mxCell>
        </UserObject>
        <mxCell id="4TX2-69w3CT22Hbb08V7-5" value="" style="ellipse;shape=cloud;whiteSpace=wrap;html=1;" parent="1" vertex="1">
          <mxGeometry x="450" y="300" width="50" height="50" as="geometry" />
        </mxCell>
        <mxCell id="4TX2-69w3CT22Hbb08V7-6" value="" style="endArrow=classic;html=1;rounded=0;exitX=0.5;exitY=0.5;exitDx=0;exitDy=0;exitPerimeter=0;" parent="1" source="4TX2-69w3CT22Hbb08V7-2" target="4TX2-69w3CT22Hbb08V7-5" edge="1">
          <mxGeometry width="50" height="50" relative="1" as="geometry">
            <mxPoint x="350" y="440" as="sourcePoint" />
            <mxPoint x="400" y="390" as="targetPoint" />
          </mxGeometry>
        </mxCell>
        <mxCell id="4TX2-69w3CT22Hbb08V7-9" style="edgeStyle=orthogonalEdgeStyle;rounded=0;orthogonalLoop=1;jettySize=auto;html=1;curved=1;" parent="1" source="4TX2-69w3CT22Hbb08V7-8" target="4TX2-69w3CT22Hbb08V7-2" edge="1">
          <mxGeometry relative="1" as="geometry" />
        </mxCell>
        <UserObject label="%Name%" placeholders="1" Name="Characteristic Time" Doc="The time constant for the teacup" Units="-" _initial="10" _pysd_type="AbstractUnchangeableConstant" _equation="" id="4TX2-69w3CT22Hbb08V7-8">
          <mxCell style="text;html=1;strokeColor=#6c8ebf;fillColor=#dae8fc;align=center;verticalAlign=middle;whiteSpace=wrap;overflow=hidden;" parent="1" vertex="1">
            <mxGeometry x="385" y="230" width="130" height="40" as="geometry" />
          </mxCell>
        </UserObject>
        <mxCell id="4TX2-69w3CT22Hbb08V7-11" style="edgeStyle=orthogonalEdgeStyle;rounded=0;orthogonalLoop=1;jettySize=auto;html=1;entryX=1;entryY=1;entryDx=0;entryDy=0;entryPerimeter=0;curved=1;" parent="1" source="4TX2-69w3CT22Hbb08V7-10" target="4TX2-69w3CT22Hbb08V7-2" edge="1">
          <mxGeometry relative="1" as="geometry">
            <Array as="points">
              <mxPoint x="360" y="425" />
              <mxPoint x="360" y="350" />
            </Array>
          </mxGeometry>
        </mxCell>
        <UserObject label="%Name%" placeholders="1" Name="Room Temperature" Doc="" Units="C" _initial="20" _pysd_type="AbstractUnchangeableConstant" _equation="" id="4TX2-69w3CT22Hbb08V7-10">
          <mxCell style="text;html=1;strokeColor=#6c8ebf;fillColor=#dae8fc;align=center;verticalAlign=middle;whiteSpace=wrap;overflow=hidden;" parent="1" vertex="1">
            <mxGeometry x="420" y="370" width="95" height="50" as="geometry" />
          </mxCell>
        </UserObject>
        <mxCell id="Qoo2zFa52Q9Z_oRCaFWO-7" style="edgeStyle=orthogonalEdgeStyle;rounded=0;orthogonalLoop=1;jettySize=auto;html=1;" parent="1" source="Qoo2zFa52Q9Z_oRCaFWO-1" target="4TX2-69w3CT22Hbb08V7-8" edge="1">
          <mxGeometry relative="1" as="geometry" />
        </mxCell>
        <mxCell id="Qoo2zFa52Q9Z_oRCaFWO-8" style="edgeStyle=orthogonalEdgeStyle;rounded=0;orthogonalLoop=1;jettySize=auto;html=1;" parent="1" source="Qoo2zFa52Q9Z_oRCaFWO-1" target="4TX2-69w3CT22Hbb08V7-2" edge="1">
          <mxGeometry relative="1" as="geometry" />
        </mxCell>
        <mxCell id="W3f0ErZ6QauzdH1ZPfxQ-2" style="edgeStyle=orthogonalEdgeStyle;rounded=0;orthogonalLoop=1;jettySize=auto;html=1;" parent="1" source="Qoo2zFa52Q9Z_oRCaFWO-1" target="O1v1YANqExVRyOXZa0CK-1" edge="1">
          <mxGeometry relative="1" as="geometry">
            <Array as="points">
              <mxPoint x="730" y="520" />
            </Array>
          </mxGeometry>
        </mxCell>
        <UserObject label="%Name%" placeholders="1" Name="Teatype" Doc="The type of tea" Units="-" _pysd_type="Subscript" _equation="" _initial="" id="Qoo2zFa52Q9Z_oRCaFWO-1">
          <mxCell style="swimlane;fontStyle=0;childLayout=stackLayout;horizontal=1;startSize=30;horizontalStack=0;resizeParent=1;resizeParentMax=0;resizeLast=0;collapsible=1;marginBottom=0;whiteSpace=wrap;html=1;" parent="1" vertex="1">
            <mxGeometry x="630" y="140" width="220" height="120" as="geometry">
              <mxRectangle x="640" y="170" width="70" height="30" as="alternateBounds" />
            </mxGeometry>
          </mxCell>
        </UserObject>
        <mxCell id="Qoo2zFa52Q9Z_oRCaFWO-2" value="Green Tea" style="text;strokeColor=none;fillColor=none;align=left;verticalAlign=middle;spacingLeft=4;spacingRight=4;overflow=hidden;points=[[0,0.5],[1,0.5]];portConstraint=eastwest;rotatable=0;whiteSpace=wrap;html=1" parent="Qoo2zFa52Q9Z_oRCaFWO-1" vertex="1">
          <mxGeometry y="30" width="220" height="30" as="geometry" />
        </mxCell>
        <mxCell id="Qoo2zFa52Q9Z_oRCaFWO-3" value="Black Tea" style="text;strokeColor=none;fillColor=none;align=left;verticalAlign=middle;spacingLeft=4;spacingRight=4;overflow=hidden;points=[[0,0.5],[1,0.5]];portConstraint=eastwest;rotatable=0;whiteSpace=wrap;html=1" parent="Qoo2zFa52Q9Z_oRCaFWO-1" vertex="1">
          <mxGeometry y="60" width="220" height="30" as="geometry" />
        </mxCell>
        <mxCell id="Qoo2zFa52Q9Z_oRCaFWO-4" value="Chai" style="text;strokeColor=none;fillColor=none;align=left;verticalAlign=middle;spacingLeft=4;spacingRight=4;overflow=hidden;points=[[0,0.5],[1,0.5]];portConstraint=eastwest;rotatable=0;whiteSpace=wrap;html=1" parent="Qoo2zFa52Q9Z_oRCaFWO-1" vertex="1">
          <mxGeometry y="90" width="220" height="30" as="geometry" />
        </mxCell>
        <mxCell id="W3f0ErZ6QauzdH1ZPfxQ-1" style="edgeStyle=orthogonalEdgeStyle;rounded=0;orthogonalLoop=1;jettySize=auto;html=1;entryX=0;entryY=1;entryDx=0;entryDy=0;entryPerimeter=0;" parent="1" source="O1v1YANqExVRyOXZa0CK-1" target="4TX2-69w3CT22Hbb08V7-2" edge="1">
          <mxGeometry relative="1" as="geometry">
            <Array as="points">
              <mxPoint x="270" y="505" />
              <mxPoint x="270" y="350" />
            </Array>
          </mxGeometry>
        </mxCell>
        <UserObject label="&lt; %Name% &gt;" placeholders="1" Name="Teacup Temperature" _pysd_type="Reference" id="O1v1YANqExVRyOXZa0CK-1">
          <mxCell style="text;html=1;strokeColor=#b85450;fillColor=#f8cecc;align=center;verticalAlign=middle;whiteSpace=wrap;overflow=hidden;textOpacity=70;" parent="1" vertex="1">
            <mxGeometry x="470" y="490" width="150" height="40" as="geometry" />
          </mxCell>
        </UserObject>
        <mxCell id="5wS2JZDlbxRlhDEq-Niy-1" value="" style="group" parent="1" vertex="1" connectable="0">
          <mxGeometry x="105" y="70" width="265" height="40" as="geometry" />
        </mxCell>
        <UserObject label="%Name%" placeholders="1" Name="INITIAL TIME" Doc="Initial time of the simulation" Units="-" _initial="0" _pysd_type="ControlVar" _equation="" id="4js4L4JS_ij2CAjp7QS7-1">
          <mxCell style="text;html=1;strokeColor=default;fillColor=#FFCE9F;align=center;verticalAlign=middle;whiteSpace=wrap;overflow=hidden;shadow=0;glass=0;rounded=0;" parent="5wS2JZDlbxRlhDEq-Niy-1" vertex="1">
            <mxGeometry width="67.3015873015873" height="40" as="geometry" />
          </mxCell>
        </UserObject>
        <UserObject label="%Name%" placeholders="1" Name="FINAL TIME" Doc="Final time of the simulation" Units="-" _initial="10" _pysd_type="ControlVar" _equation="" id="4js4L4JS_ij2CAjp7QS7-2">
          <mxCell style="text;html=1;strokeColor=default;fillColor=#FFCE9F;align=center;verticalAlign=middle;whiteSpace=wrap;overflow=hidden;shadow=0;glass=0;rounded=0;" parent="5wS2JZDlbxRlhDEq-Niy-1" vertex="1">
            <mxGeometry x="67.3015873015873" width="67.3015873015873" height="40" as="geometry" />
          </mxCell>
        </UserObject>
        <UserObject label="%Name%" placeholders="1" Name="TIME STEP" Doc="Time step of the simulation" Units="-" _initial="1" _pysd_type="ControlVar" _equation="" id="4js4L4JS_ij2CAjp7QS7-3">
          <mxCell style="text;html=1;strokeColor=default;fillColor=#FFCE9F;align=center;verticalAlign=middle;whiteSpace=wrap;overflow=hidden;shadow=0;glass=0;rounded=0;" parent="5wS2JZDlbxRlhDEq-Niy-1" vertex="1">
            <mxGeometry x="134.6031746031746" width="67.3015873015873" height="40" as="geometry" />
          </mxCell>
        </UserObject>
        <UserObject label="%Name%" placeholders="1" Name="SAVEPER" Doc="The frequency with which output is stored." Units="-" _initial="1" _pysd_type="ControlVar" _equation="" id="4js4L4JS_ij2CAjp7QS7-4">
          <mxCell style="text;html=1;strokeColor=default;fillColor=#FFCE9F;align=center;verticalAlign=middle;whiteSpace=wrap;overflow=hidden;shadow=0;glass=0;rounded=0;" parent="5wS2JZDlbxRlhDEq-Niy-1" vertex="1">
            <mxGeometry x="201.90476190476193" width="63.0952380952381" height="40" as="geometry" />
          </mxCell>
        </UserObject>
      </root>
    </mxGraphModel>
  </diagram>
</mxfile>
